<mxfile host="app.diagrams.net" modified="2022-09-02T06:54:17.554Z" agent="5.0 (Windows NT 10.0; Win64; x64) AppleWebKit/537.36 (KHTML, like Gecko) Chrome/102.0.0.0 Safari/537.36" etag="7VHjZwitB5gNindZT7Rq" version="20.2.8" type="github">
  <diagram name="Page-1" id="19d8dcba-68ad-dc05-1034-9cf7b2a963f6">
    <mxGraphModel dx="1422" dy="762" grid="1" gridSize="10" guides="1" tooltips="1" connect="1" arrows="1" fold="1" page="1" pageScale="1" pageWidth="1100" pageHeight="850" background="none" math="0" shadow="0">
      <root>
        <mxCell id="0" />
        <mxCell id="1" parent="0" />
        <mxCell id="218ae93e1282097f-19" value="" style="whiteSpace=wrap;html=1;rounded=1;shadow=0;comic=0;strokeWidth=2;fontFamily=Verdana;align=center;fontSize=10;" parent="1" vertex="1">
          <mxGeometry x="420" y="440" width="340" height="130" as="geometry" />
        </mxCell>
        <mxCell id="218ae93e1282097f-24" value="" style="whiteSpace=wrap;html=1;rounded=1;shadow=0;comic=0;strokeWidth=2;fontFamily=Verdana;align=center;fontSize=10;" parent="1" vertex="1">
          <mxGeometry x="876" y="440" width="223" height="130" as="geometry" />
        </mxCell>
        <mxCell id="218ae93e1282097f-29" value="" style="whiteSpace=wrap;html=1;rounded=1;shadow=0;comic=0;strokeWidth=2;fontFamily=Verdana;align=center;fontSize=10;" parent="1" vertex="1">
          <mxGeometry x="1197" y="440" width="300" height="130" as="geometry" />
        </mxCell>
        <mxCell id="218ae93e1282097f-39" value="&lt;font style=&quot;line-height: 0.8; font-size: 11px;&quot;&gt;子类&lt;/font&gt;" style="shape=actor;whiteSpace=wrap;html=1;rounded=0;shadow=0;comic=0;strokeWidth=1;fillColor=#CCCCCC;fontFamily=Verdana;align=center;strokeColor=none;labelPosition=center;verticalLabelPosition=bottom;verticalAlign=top;fontSize=10;" parent="1" vertex="1">
          <mxGeometry x="480" y="450" width="30" height="30" as="geometry" />
        </mxCell>
        <mxCell id="218ae93e1282097f-42" value="" style="edgeStyle=orthogonalEdgeStyle;rounded=1;html=1;labelBackgroundColor=none;endArrow=block;endFill=1;strokeColor=#4D4D4D;strokeWidth=2;fontFamily=Verdana;fontSize=12;fontStyle=1" parent="1" source="6257edae8c83ed4a-1" target="6257edae8c83ed4a-12" edge="1">
          <mxGeometry relative="1" as="geometry" />
        </mxCell>
        <mxCell id="218ae93e1282097f-43" value="" style="edgeStyle=orthogonalEdgeStyle;rounded=1;html=1;labelBackgroundColor=none;endArrow=block;endFill=1;strokeColor=#4D4D4D;strokeWidth=2;fontFamily=Verdana;fontSize=12;fontStyle=1;entryX=0.5;entryY=0;entryDx=0;entryDy=0;" parent="1" source="6257edae8c83ed4a-1" target="6257edae8c83ed4a-21" edge="1">
          <mxGeometry relative="1" as="geometry">
            <mxPoint x="626" y="210" as="targetPoint" />
            <Array as="points">
              <mxPoint x="987" y="250" />
              <mxPoint x="626" y="250" />
              <mxPoint x="626" y="330" />
            </Array>
          </mxGeometry>
        </mxCell>
        <mxCell id="218ae93e1282097f-44" value="" style="edgeStyle=orthogonalEdgeStyle;rounded=1;html=1;labelBackgroundColor=none;endArrow=block;endFill=1;strokeColor=#4D4D4D;strokeWidth=2;fontFamily=Verdana;fontSize=12;fontStyle=1;entryX=0.5;entryY=0;entryDx=0;entryDy=0;" parent="1" source="6257edae8c83ed4a-1" target="6257edae8c83ed4a-24" edge="1">
          <mxGeometry relative="1" as="geometry">
            <mxPoint x="1347" y="210" as="targetPoint" />
            <Array as="points">
              <mxPoint x="987" y="250" />
              <mxPoint x="1347" y="250" />
            </Array>
          </mxGeometry>
        </mxCell>
        <mxCell id="218ae93e1282097f-50" value="" style="edgeStyle=orthogonalEdgeStyle;rounded=1;html=1;labelBackgroundColor=none;endArrow=block;endFill=1;strokeColor=#4D4D4D;strokeWidth=2;fontFamily=Verdana;fontSize=10;" parent="1" source="6257edae8c83ed4a-24" target="218ae93e1282097f-29" edge="1">
          <mxGeometry relative="1" as="geometry" />
        </mxCell>
        <mxCell id="218ae93e1282097f-51" value="" style="edgeStyle=elbowEdgeStyle;rounded=1;html=1;labelBackgroundColor=none;endArrow=block;endFill=1;strokeColor=#4D4D4D;strokeWidth=2;fontFamily=Verdana;fontSize=10;" parent="1" source="6257edae8c83ed4a-12" target="218ae93e1282097f-24" edge="1">
          <mxGeometry relative="1" as="geometry" />
        </mxCell>
        <mxCell id="218ae93e1282097f-52" value="" style="edgeStyle=elbowEdgeStyle;rounded=1;html=1;labelBackgroundColor=none;endArrow=block;endFill=1;strokeColor=#4D4D4D;strokeWidth=2;fontFamily=Verdana;fontSize=10;" parent="1" source="6257edae8c83ed4a-21" target="218ae93e1282097f-19" edge="1">
          <mxGeometry relative="1" as="geometry" />
        </mxCell>
        <mxCell id="218ae93e1282097f-61" value="特有属性" style="text;html=1;strokeColor=none;fillColor=none;align=center;verticalAlign=middle;whiteSpace=wrap;rounded=1;shadow=0;comic=0;fontFamily=Verdana;fontSize=10;" parent="1" vertex="1">
          <mxGeometry x="445" y="505" width="90" height="25" as="geometry" />
        </mxCell>
        <mxCell id="218ae93e1282097f-62" value="特有属性" style="text;html=1;strokeColor=none;fillColor=none;align=center;verticalAlign=middle;whiteSpace=wrap;rounded=1;shadow=0;comic=0;fontFamily=Verdana;fontSize=10;" parent="1" vertex="1">
          <mxGeometry x="545" y="505" width="90" height="25" as="geometry" />
        </mxCell>
        <mxCell id="218ae93e1282097f-63" value="特有属性" style="text;html=1;strokeColor=none;fillColor=none;align=center;verticalAlign=middle;whiteSpace=wrap;rounded=1;shadow=0;comic=0;fontFamily=Verdana;fontSize=10;" parent="1" vertex="1">
          <mxGeometry x="645" y="505" width="90" height="25" as="geometry" />
        </mxCell>
        <mxCell id="218ae93e1282097f-64" value="特有方法" style="text;html=1;strokeColor=none;fillColor=none;align=center;verticalAlign=middle;whiteSpace=wrap;rounded=1;shadow=0;comic=0;fontFamily=Verdana;fontSize=10;" parent="1" vertex="1">
          <mxGeometry x="445" y="540" width="90" height="25" as="geometry" />
        </mxCell>
        <mxCell id="218ae93e1282097f-65" value="特有方法" style="text;html=1;strokeColor=none;fillColor=none;align=center;verticalAlign=middle;whiteSpace=wrap;rounded=1;shadow=0;comic=0;fontFamily=Verdana;fontSize=10;" parent="1" vertex="1">
          <mxGeometry x="545" y="540" width="90" height="25" as="geometry" />
        </mxCell>
        <mxCell id="218ae93e1282097f-66" value="特有方法" style="text;html=1;strokeColor=none;fillColor=none;align=center;verticalAlign=middle;whiteSpace=wrap;rounded=1;shadow=0;comic=0;fontFamily=Verdana;fontSize=10;" parent="1" vertex="1">
          <mxGeometry x="645" y="540" width="90" height="25" as="geometry" />
        </mxCell>
        <mxCell id="218ae93e1282097f-67" value="特有属性" style="text;html=1;strokeColor=none;fillColor=none;align=center;verticalAlign=middle;whiteSpace=wrap;rounded=1;shadow=0;comic=0;fontFamily=Verdana;fontSize=10;" parent="1" vertex="1">
          <mxGeometry x="892" y="505" width="90" height="25" as="geometry" />
        </mxCell>
        <mxCell id="218ae93e1282097f-68" value="特有属性" style="text;html=1;strokeColor=none;fillColor=none;align=center;verticalAlign=middle;whiteSpace=wrap;rounded=1;shadow=0;comic=0;fontFamily=Verdana;fontSize=10;" parent="1" vertex="1">
          <mxGeometry x="992" y="505" width="90" height="25" as="geometry" />
        </mxCell>
        <mxCell id="218ae93e1282097f-69" value="特有方法" style="text;html=1;strokeColor=none;fillColor=none;align=center;verticalAlign=middle;whiteSpace=wrap;rounded=1;shadow=0;comic=0;fontFamily=Verdana;fontSize=10;" parent="1" vertex="1">
          <mxGeometry x="892" y="540" width="90" height="25" as="geometry" />
        </mxCell>
        <mxCell id="218ae93e1282097f-70" value="特有方法" style="text;html=1;strokeColor=none;fillColor=none;align=center;verticalAlign=middle;whiteSpace=wrap;rounded=1;shadow=0;comic=0;fontFamily=Verdana;fontSize=10;" parent="1" vertex="1">
          <mxGeometry x="992" y="540" width="90" height="25" as="geometry" />
        </mxCell>
        <mxCell id="218ae93e1282097f-74" value="特有属性" style="text;html=1;strokeColor=none;fillColor=none;align=center;verticalAlign=middle;whiteSpace=wrap;rounded=1;shadow=0;comic=0;fontFamily=Verdana;fontSize=10;" parent="1" vertex="1">
          <mxGeometry x="1202" y="505" width="90" height="25" as="geometry" />
        </mxCell>
        <mxCell id="218ae93e1282097f-75" value="特有属性" style="text;html=1;strokeColor=none;fillColor=none;align=center;verticalAlign=middle;whiteSpace=wrap;rounded=1;shadow=0;comic=0;fontFamily=Verdana;fontSize=10;" parent="1" vertex="1">
          <mxGeometry x="1302" y="505" width="90" height="25" as="geometry" />
        </mxCell>
        <mxCell id="218ae93e1282097f-76" value="特有属性" style="text;html=1;strokeColor=none;fillColor=none;align=center;verticalAlign=middle;whiteSpace=wrap;rounded=1;shadow=0;comic=0;fontFamily=Verdana;fontSize=10;" parent="1" vertex="1">
          <mxGeometry x="1402" y="505" width="90" height="25" as="geometry" />
        </mxCell>
        <mxCell id="218ae93e1282097f-77" value="特有方法" style="text;html=1;strokeColor=none;fillColor=none;align=center;verticalAlign=middle;whiteSpace=wrap;rounded=1;shadow=0;comic=0;fontFamily=Verdana;fontSize=10;" parent="1" vertex="1">
          <mxGeometry x="1202" y="540" width="90" height="25" as="geometry" />
        </mxCell>
        <mxCell id="218ae93e1282097f-78" value="特有方法" style="text;html=1;strokeColor=none;fillColor=none;align=center;verticalAlign=middle;whiteSpace=wrap;rounded=1;shadow=0;comic=0;fontFamily=Verdana;fontSize=10;" parent="1" vertex="1">
          <mxGeometry x="1302" y="540" width="90" height="25" as="geometry" />
        </mxCell>
        <mxCell id="218ae93e1282097f-79" value="特有方法" style="text;html=1;strokeColor=none;fillColor=none;align=center;verticalAlign=middle;whiteSpace=wrap;rounded=1;shadow=0;comic=0;fontFamily=Verdana;fontSize=10;" parent="1" vertex="1">
          <mxGeometry x="1402" y="540" width="90" height="25" as="geometry" />
        </mxCell>
        <mxCell id="6257edae8c83ed4a-21" value="B类（子类/派生类）&lt;br&gt;特有属性&lt;br&gt;特有方法" style="whiteSpace=wrap;html=1;rounded=1;shadow=0;comic=0;strokeWidth=2;fontFamily=Verdana;align=center;fontSize=12;fontStyle=1" parent="1" vertex="1">
          <mxGeometry x="524" y="330" width="200" height="50" as="geometry" />
        </mxCell>
        <mxCell id="6257edae8c83ed4a-22" value="" style="shape=actor;whiteSpace=wrap;html=1;rounded=0;shadow=0;comic=0;strokeWidth=1;fillColor=#CCCCCC;fontFamily=Verdana;align=center;strokeColor=none;fontSize=12;fontStyle=1" parent="1" vertex="1">
          <mxGeometry x="538" y="340" width="24" height="30" as="geometry" />
        </mxCell>
        <mxCell id="6257edae8c83ed4a-12" value="C类（子类/派生类）&lt;br&gt;特有属性&lt;br&gt;特有方法" style="whiteSpace=wrap;html=1;rounded=1;shadow=0;comic=0;strokeWidth=2;fontFamily=Verdana;align=center;fontSize=12;fontStyle=1" parent="1" vertex="1">
          <mxGeometry x="887" y="330" width="200" height="50" as="geometry" />
        </mxCell>
        <mxCell id="6257edae8c83ed4a-13" value="" style="shape=actor;whiteSpace=wrap;html=1;rounded=0;shadow=0;comic=0;strokeWidth=1;fillColor=#CCCCCC;fontFamily=Verdana;align=center;strokeColor=none;fontSize=12;fontStyle=1" parent="1" vertex="1">
          <mxGeometry x="901" y="340" width="24" height="30" as="geometry" />
        </mxCell>
        <mxCell id="6257edae8c83ed4a-1" value="A类（父类/基类/超类）&lt;br&gt;共有属性&lt;br&gt;共有方法" style="whiteSpace=wrap;html=1;rounded=1;shadow=0;comic=0;strokeWidth=2;fontFamily=Verdana;align=center;fontSize=12;fontStyle=1" parent="1" vertex="1">
          <mxGeometry x="887" y="140" width="200" height="50" as="geometry" />
        </mxCell>
        <mxCell id="6257edae8c83ed4a-2" value="" style="shape=actor;whiteSpace=wrap;html=1;rounded=0;shadow=0;comic=0;strokeWidth=1;fillColor=#CCCCCC;fontFamily=Verdana;align=center;strokeColor=none;fontSize=12;fontStyle=1" parent="1" vertex="1">
          <mxGeometry x="892" y="150" width="24" height="30" as="geometry" />
        </mxCell>
        <mxCell id="6257edae8c83ed4a-24" value="D类（子类/派生类）&lt;br&gt;特有属性&lt;br&gt;特有方法" style="whiteSpace=wrap;html=1;rounded=1;shadow=0;comic=0;strokeWidth=2;fontFamily=Verdana;align=center;fontSize=12;fontStyle=1" parent="1" vertex="1">
          <mxGeometry x="1247" y="330" width="200" height="50" as="geometry" />
        </mxCell>
        <mxCell id="6257edae8c83ed4a-25" value="" style="shape=actor;whiteSpace=wrap;html=1;rounded=0;shadow=0;comic=0;strokeWidth=1;fillColor=#CCCCCC;fontFamily=Verdana;align=center;strokeColor=none;fontSize=12;fontStyle=1" parent="1" vertex="1">
          <mxGeometry x="1261" y="340" width="24" height="30" as="geometry" />
        </mxCell>
        <mxCell id="RWViA6oMqifq89YE6iVF-4" value="&lt;font style=&quot;line-height: 0.8; font-size: 11px;&quot;&gt;子类&lt;/font&gt;" style="shape=actor;whiteSpace=wrap;html=1;rounded=0;shadow=0;comic=0;strokeWidth=1;fillColor=#CCCCCC;fontFamily=Verdana;align=center;strokeColor=none;labelPosition=center;verticalLabelPosition=bottom;verticalAlign=top;fontSize=10;" vertex="1" parent="1">
          <mxGeometry x="922" y="450" width="30" height="30" as="geometry" />
        </mxCell>
        <mxCell id="RWViA6oMqifq89YE6iVF-6" value="&lt;font style=&quot;line-height: 0.8; font-size: 11px;&quot;&gt;子类&lt;/font&gt;" style="shape=actor;whiteSpace=wrap;html=1;rounded=0;shadow=0;comic=0;strokeWidth=1;fillColor=#CCCCCC;fontFamily=Verdana;align=center;strokeColor=none;labelPosition=center;verticalLabelPosition=bottom;verticalAlign=top;fontSize=10;" vertex="1" parent="1">
          <mxGeometry x="1022" y="450" width="30" height="30" as="geometry" />
        </mxCell>
        <mxCell id="RWViA6oMqifq89YE6iVF-7" value="&lt;font style=&quot;line-height: 0.8; font-size: 11px;&quot;&gt;子类&lt;/font&gt;" style="shape=actor;whiteSpace=wrap;html=1;rounded=0;shadow=0;comic=0;strokeWidth=1;fillColor=#CCCCCC;fontFamily=Verdana;align=center;strokeColor=none;labelPosition=center;verticalLabelPosition=bottom;verticalAlign=top;fontSize=10;" vertex="1" parent="1">
          <mxGeometry x="1232" y="450" width="30" height="30" as="geometry" />
        </mxCell>
        <mxCell id="RWViA6oMqifq89YE6iVF-8" value="&lt;font style=&quot;line-height: 0.8; font-size: 11px;&quot;&gt;子类&lt;/font&gt;" style="shape=actor;whiteSpace=wrap;html=1;rounded=0;shadow=0;comic=0;strokeWidth=1;fillColor=#CCCCCC;fontFamily=Verdana;align=center;strokeColor=none;labelPosition=center;verticalLabelPosition=bottom;verticalAlign=top;fontSize=10;" vertex="1" parent="1">
          <mxGeometry x="1332" y="450" width="30" height="30" as="geometry" />
        </mxCell>
        <mxCell id="RWViA6oMqifq89YE6iVF-9" value="&lt;font style=&quot;line-height: 0.8; font-size: 11px;&quot;&gt;子类&lt;/font&gt;" style="shape=actor;whiteSpace=wrap;html=1;rounded=0;shadow=0;comic=0;strokeWidth=1;fillColor=#CCCCCC;fontFamily=Verdana;align=center;strokeColor=none;labelPosition=center;verticalLabelPosition=bottom;verticalAlign=top;fontSize=10;" vertex="1" parent="1">
          <mxGeometry x="1432" y="450" width="30" height="30" as="geometry" />
        </mxCell>
        <mxCell id="RWViA6oMqifq89YE6iVF-10" value="&lt;font style=&quot;line-height: 0.8; font-size: 11px;&quot;&gt;子类&lt;/font&gt;" style="shape=actor;whiteSpace=wrap;html=1;rounded=0;shadow=0;comic=0;strokeWidth=1;fillColor=#CCCCCC;fontFamily=Verdana;align=center;strokeColor=none;labelPosition=center;verticalLabelPosition=bottom;verticalAlign=top;fontSize=10;" vertex="1" parent="1">
          <mxGeometry x="680" y="450" width="30" height="30" as="geometry" />
        </mxCell>
        <mxCell id="RWViA6oMqifq89YE6iVF-11" value="&lt;font style=&quot;line-height: 0.8; font-size: 11px;&quot;&gt;子类&lt;/font&gt;" style="shape=actor;whiteSpace=wrap;html=1;rounded=0;shadow=0;comic=0;strokeWidth=1;fillColor=#CCCCCC;fontFamily=Verdana;align=center;strokeColor=none;labelPosition=center;verticalLabelPosition=bottom;verticalAlign=top;fontSize=10;" vertex="1" parent="1">
          <mxGeometry x="575" y="450" width="30" height="30" as="geometry" />
        </mxCell>
      </root>
    </mxGraphModel>
  </diagram>
</mxfile>
